<svg id="socialicious" xmlns="http://www.w3.org/2000/svg" width="100" height="100" viewBox="0 0 100 100"><style>.st0{fill:#464342}.st1{fill:#e04b26}.st2{fill:#e74b24}.st3{fill:#e94c88}.st4{fill:#1ab6ea}.st5{fill:#ea2429}.st6{fill:#ec1e82}.st7{fill:#b9b9ba}.st8{fill:#ee3e53}.st9{fill:#ee4977}.st10{fill:#5496d0}.st11{fill:#bbb}.st12{fill:#bcbcbc}.st13{fill:#f16722}.st14{fill:#5a471c}.st15{fill:url(#SVGID_1_)}.st16{fill:url(#SVGID_2_)}.st17{fill:#2aa9e0}.st18,.st19{fill-rule:evenodd;clip-rule:evenodd;fill:#bbb}.st19{fill:#bcbcbc}.st20{fill:#c93c27}.st21{fill:#638bb0}.st22{fill:#ca2027}.st23{fill:#30302f}.st24{fill:#34373d}.st25{fill:#00405d}.st26{fill:#007ee5}.st27{fill:#00a8e1}.st28{fill-rule:evenodd;clip-rule:evenodd;fill:#fff}.st29{fill:#035795}.st30{fill:#3c5a97}.st31{fill:#3f64ae}.st32{fill:#3f729b}.st33{fill:#a42f23}.st34{fill:#75c044}.st35{fill:#a72723}.st36{fill:#db2726}.st37{fill:#d33}.st38{fill:url(#soundcloud_2_)}.st39{fill:#442d86}.st40{fill:#44556b}</style><path class="st37" d="M89.2 0H10.8C4.8 0 0 4.9 0 10.8v78.4c0 6 4.8 10.8 10.8 10.8h78.4c6 0 10.8-4.8 10.8-10.8V10.8C100 4.9 95.2 0 89.2 0z"/><path class="st28" d="M69.9 75.8c-1.8.5-2.4-.2-2.9-1.8-2.9-9.6-5.9-19.1-9-29-.2 1.3-.4 2.3-.4 3.4-.4 5.8-.6 11.6-.9 17.4-.1 1.4-.2 2.8-.8 4-.4.9-1.5 1.6-2.5 1.9-1.4.4-3 .1-4.4.6-3.6 1.1-5.5-.8-7.1-3.5-2-3.4-4.1-6.7-6.2-10.1h-.4c.4 3.1.7 6.2 1.2 9.2.3 1.8-.4 2.8-2 3.5-.3.1-.6.3-1 .5-6.9 2.6-8.2 1.7-9.3-5.5-1.6-10.3-1.2-20.7-.8-31.1 0-.6.7-1.4 1.3-1.7 1.2-.5 2.4-.8 3.7-1 5.1-.8 6.4-.2 8.8 4.3 2.3 4.5 4.7 9 7 13.5.3.6.7 1.2 1.2 2 1-5 1.8-9.7 3.1-14.2 1.2-4.3 3-8.5 4.7-12.6.3-.7 1.7-1.5 2.5-1.5 2.5 0 5.1-.1 7.4.7 1.4.5 2.7 2.4 3.1 4 1.6 5.4 2.8 10.9 4 16.3 2.2 9.6 4.3 19.1 6.6 29-2 .4-4.5 1-6.9 1.7z"/></svg>