<svg id="socialicious" xmlns="http://www.w3.org/2000/svg" width="100" height="100" viewBox="0 0 100 100"><style>.st0{fill:#464342}.st1{fill:#e04b26}.st2{fill:#e74b24}.st3{fill:#e94c88}.st4{fill:#1ab6ea}.st5{fill:#ea2429}.st6{fill:#ec1e82}.st7{fill:#b9b9ba}.st8{fill:#ee3e53}.st9{fill:#ee4977}.st10{fill:#5496d0}.st11{fill:#bbb}.st12{fill:#bcbcbc}.st13{fill:#f16722}.st14{fill:#5a471c}.st15{fill:url(#SVGID_1_)}.st16{fill:url(#SVGID_2_)}.st17{fill:#2aa9e0}.st18,.st19{fill-rule:evenodd;clip-rule:evenodd;fill:#bbb}.st19{fill:#bcbcbc}.st20{fill:#c93c27}.st21{fill:#638bb0}.st22{fill:#ca2027}.st23{fill:#30302f}.st24{fill:#34373d}.st25{fill:#00405d}.st26{fill:#007ee5}.st27{fill:#00a8e1}.st28{fill-rule:evenodd;clip-rule:evenodd;fill:#fff}.st29{fill:#035795}.st30{fill:#3c5a97}.st31{fill:#3f64ae}.st32{fill:#3f729b}.st33{fill:#a42f23}.st34{fill:#75c044}.st35{fill:#a72723}.st36{fill:#db2726}.st37{fill:#d33}.st38{fill:url(#soundcloud_2_)}.st39{fill:#442d86}.st40{fill:#44556b}</style><path class="st18" d="M87 98.1c-3.3 1-4.4-.3-5.3-3.4-5.4-17.8-11-35.5-16.8-54-.3 2.4-.7 4.4-.8 6.3-.6 10.8-1 21.6-1.6 32.3-.1 2.5-.4 5.3-1.5 7.5-.8 1.6-2.8 3.1-4.6 3.6-2.6.8-5.5.3-8.1 1-6.6 2-10.2-1.4-13.2-6.6-3.7-6.3-7.7-12.5-11.5-18.8h-.8c.6 6 1.2 11.7 2.2 17.4.5 3.3-.8 5.3-3.7 6.5l-1.8.9C6.7 95.6 4.2 93.9 2.1 80.6-.8 61.3-.1 42 .6 22.6c0-1.1 1.3-2.7 2.4-3.2 2.1-1 4.5-1.5 6.9-1.9 9.4-1.6 11.9-.3 16.3 8.1 4.4 8.3 8.7 16.7 13.1 25.1.6 1.1 1.3 2.2 2.2 3.7 2-9.3 3.3-18 5.7-26.5 2.3-8 5.5-15.8 8.7-23.5.6-1.4 3.1-2.8 4.8-2.8 4.6 0 9.5-.2 13.7 1.3 2.5.9 5 4.5 5.8 7.4 2.9 10 5.2 20.2 7.5 30.4 4.1 17.8 8.1 35.6 12.2 54-3.7 1-8.3 2.1-12.9 3.4z"/></svg>