<svg color-interpolation="auto" stroke="#000" stroke-linecap="square" stroke-miterlimit="10" xmlns="http://www.w3.org/2000/svg" font-family="'Dialog'" font-size="12"><path d="M86.344 85.5h28.828v29.11H86.344V85.5zm-57.656 29.11h28.828V144H28.688v-29.39zm115.312 0h28.828V144H144v-29.39zm-57.656 27.843h28.828v29.39H86.344v-29.39zm-57.656 29.39h28.828v29.391H28.688v-29.39zm115.312 0h28.828v29.391H144v-29.39zm-57.656 28.829h28.828v29.39H86.344v-29.39zm-57.656 29.39h28.828v29.391H28.688v-29.39zm115.312 0h28.828v29.391H144v-29.39zM86.344 258.61h28.828v29.11H86.344v-29.11zm-57.656 29.11h28.828v29.39H28.688v-29.39zm115.312 0h28.828v29.39H144v-29.39zm-57.656 28.969h28.828v29.109H86.344v-29.11zm-57.656 29.109h28.828v29.39H28.688v-29.39zm115.312 0h28.828v29.39H144v-29.39zm-57.656 28.547h28.828v29.39H86.344v-29.39zm-57.656 29.39h28.828v29.391H28.688v-29.39zm115.312 0h28.828v29.391H144v-29.39zM86.344 432h28.828v29.39H86.344V432z" stroke="none"/></svg>